<svg
    xmlns="http://www.w3.org/2000/svg"
    viewBox="0 0 24 24"
    id="vector">
    <g id="group_11">
        <g id="group_10">
            <g id="group_9">
                <path
                    id="path_3"
                    d="M 4 6 L 2 6 L 2 20 C 2 21.1 2.9 22 4 22 L 18 22 L 18 20 L 4 20 L 4 6 Z"
                    fill="#ffffff"/>
                <path
                    id="path_4"
                    d="M 20 2 L 8 2 C 6.9 2 6 2.9 6 4 L 6 16 C 6 17.1 6.9 18 8 18 L 20 18 C 21.1 18 22 17.1 22 16 L 22 4 C 22 2.9 21.1 2 20 2 Z M 20 12 L 17.5 10.5 L 15 12 L 15 4 L 20 4 L 20 12 Z"
                    fill="#ffffff"/>
            </g>
        </g>
    </g>
</svg>
