<svg
    xmlns="http://www.w3.org/2000/svg"
    viewBox="0 0 24 24"
    id="vector">
    <g id="group_1">
        <g id="group">
            <path
                id="path"
                d="M 21 5 L 21 11.59 L 18.71 9.29 C 18.32 8.9 17.68 8.9 17.29 9.29 L 14 12.59 L 10.71 9.3 C 10.32 8.91 9.69 8.91 9.3 9.3 L 6 12.59 L 3 9.58 L 3 5 C 3 3.9 3.9 3 5 3 L 19 3 C 20.1 3 21 3.9 21 5 Z M 18 11.42 L 21 14.43 L 21 19 C 21 20.1 20.1 21 19 21 L 5 21 C 3.9 21 3 20.1 3 19 L 3 12.42 L 5.29 14.71 C 5.68 15.1 6.31 15.1 6.7 14.71 L 10 11.41 L 13.29 14.7 C 13.68 15.09 14.31 15.09 14.7 14.7 L 18 11.42 Z"
                fill="#ffffff"/>
        </g>
    </g>
</svg>
