<svg
    xmlns="http://www.w3.org/2000/svg"
    viewBox="0 0 24 24"
    id="vector">
    <path
        id="path_9"
        d="M 11.99 2 C 6.47 2 2 6.48 2 12 C 2 17.52 6.47 22 11.99 22 C 17.52 22 22 17.52 22 12 C 22 6.48 17.52 2 11.99 2 Z M 12 4 C 16.42 4 20 7.58 20 12 C 20 16.42 16.42 20 12 20 C 7.58 20 4 16.42 4 12 C 4 7.58 7.58 4 12 4 Z"
        fill="#fff"/>
    <path
        id="path_10"
        d="M 18.041 12 L 16.976 10.935 L 12.755 15.149 L 12.755 5.959 L 11.245 5.959 L 11.245 15.149 L 7.031 10.928 L 5.959 12 L 12 18.041 Z"
        fill="#fff"/>
</svg>
