<svg
    xmlns="http://www.w3.org/2000/svg"
    viewBox="0 0 24 24"
    id="vector">
    <g id="group_8">
        <g id="group_7">
            <g id="group_6">
                <path
                    id="path_2"
                    d="M 12 10.9 C 11.39 10.9 10.9 11.39 10.9 12 C 10.9 12.61 11.39 13.1 12 13.1 C 12.61 13.1 13.1 12.61 13.1 12 C 13.1 11.39 12.61 10.9 12 10.9 Z M 12 2 C 6.48 2 2 6.48 2 12 C 2 17.52 6.48 22 12 22 C 17.52 22 22 17.52 22 12 C 22 6.48 17.52 2 12 2 Z M 14.19 14.19 L 6 18 L 9.81 9.81 L 18 6 L 14.19 14.19 Z"
                    fill="#ffffff"/>
            </g>
        </g>
    </g>
</svg>
