<svg
    xmlns="http://www.w3.org/2000/svg"
    viewBox="0 0 24 24"
    id="vector">
    <g id="group_14">
        <g id="group_13">
            <g id="group_12">
                <path
                    id="path_5"
                    d="M 23 12 L 20.56 9.22 L 20.9 5.54 L 17.29 4.72 L 15.4 1.54 L 12 3 L 8.6 1.54 L 6.71 4.72 L 3.1 5.53 L 3.44 9.21 L 1 12 L 3.44 14.78 L 3.1 18.47 L 6.71 19.29 L 8.6 22.47 L 12 21 L 15.4 22.46 L 17.29 19.28 L 20.9 18.46 L 20.56 14.78 L 23 12 Z M 13 17 L 11 17 L 11 15 L 13 15 L 13 17 Z M 13 13 L 11 13 L 11 7 L 13 7 L 13 13 Z"
                    fill="#ffffff"/>
            </g>
        </g>
    </g>
</svg>
