<svg
    xmlns="http://www.w3.org/2000/svg"
    viewBox="0 0 108 108"
    id="vector">
    <path
        id="path_6"
        d="M 14.5 7 L 86.5 7 C 88.356 7 90.137 7.738 91.45 9.05 C 92.762 10.363 93.5 12.144 93.5 14 L 93.5 95 C 93.5 96.856 92.762 98.637 91.45 99.95 C 90.137 101.262 88.356 102 86.5 102 L 14.5 102 C 12.644 102 10.863 101.262 9.55 99.95 C 8.238 98.637 7.5 96.856 7.5 95 L 7.5 14 C 7.5 12.144 8.238 10.363 9.55 9.05 C 10.863 7.738 12.644 7 14.5 7 Z"
        fill="#000000"/>
    <path
        id="path_7"
        d="M 14.5 7 L 86.5 7 C 88.356 7 90.137 7.738 91.45 9.05 C 92.762 10.363 93.5 12.144 93.5 14 L 93.5 95 C 93.5 96.856 92.762 98.637 91.45 99.95 C 90.137 101.262 88.356 102 86.5 102 L 14.5 102 C 12.644 102 10.863 101.262 9.55 99.95 C 8.238 98.637 7.5 96.856 7.5 95 L 7.5 14 C 7.5 12.144 8.238 10.363 9.55 9.05 C 10.863 7.738 12.644 7 14.5 7 Z"
        fill="#2e84bf"/>
    <path
        id="path_8"
        d="M 7.5 12.01 C 7.5 9.24 9.74 7 12.5 7 L 17.5 7 L 17.5 102 L 12.5 102 C 9.74 102 7.5 99.77 7.5 96.99 L 7.5 12.01 Z"
        fill="#69a3cb"/>
    <path
        id="path_9"
        d="M 54 54.5 M 28.5 54.5 C 28.5 47.74 31.188 41.249 35.969 36.469 C 40.749 31.688 47.24 29 54 29 C 60.76 29 67.251 31.688 72.031 36.469 C 76.812 41.249 79.5 47.74 79.5 54.5 C 79.5 61.26 76.812 67.751 72.031 72.531 C 67.251 77.312 60.76 80 54 80 C 47.24 80 40.749 77.312 35.969 72.531 C 31.188 67.751 28.5 61.26 28.5 54.5"
        fill="#000000"/>
    <path
        id="path_10"
        d="M 54 54.5 M 28.5 54.5 C 28.5 47.74 31.188 41.249 35.969 36.469 C 40.749 31.688 47.24 29 54 29 C 60.76 29 67.251 31.688 72.031 36.469 C 76.812 41.249 79.5 47.74 79.5 54.5 C 79.5 61.26 76.812 67.751 72.031 72.531 C 67.251 77.312 60.76 80 54 80 C 47.24 80 40.749 77.312 35.969 72.531 C 31.188 67.751 28.5 61.26 28.5 54.5"
        fill="#ce2828"/>
    <path
        id="path_11"
        d="M 54 54.5 M 34.06 54.5 C 33.964 50.23 35.243 46.04 37.707 42.551 C 40.171 39.062 43.692 36.455 47.748 35.117 C 51.805 33.779 56.185 33.779 60.242 35.117 C 64.298 36.455 67.819 39.062 70.283 42.551 C 72.747 46.04 74.026 50.23 73.93 54.5 C 74.026 58.77 72.747 62.96 70.283 66.449 C 67.819 69.938 64.298 72.545 60.242 73.883 C 56.185 75.221 51.805 75.221 47.748 73.883 C 43.692 72.545 40.171 69.938 37.707 66.449 C 35.243 62.96 33.964 58.77 34.06 54.5"
        fill="#ffffff"/>
    <path
        id="path_12"
        d="M 52.04 46.3 L 47.42 46.3 C 46.14 46.3 44.93 46.23 44.2 46.14 L 44.2 49.76 C 45 49.65 46.16 49.6 47.42 49.6 L 60.58 49.6 C 61.86 49.6 63.02 49.65 63.82 49.76 L 63.82 46.14 C 63.09 46.23 61.86 46.3 60.58 46.3 L 55.69 46.3 L 55.69 45.07 C 55.69 44.43 55.73 43.95 55.82 43.45 L 51.9 43.45 C 51.99 44 52.04 44.43 52.04 45.07 L 52.04 46.3 Z M 46.78 60.68 C 45.46 60.68 44.29 60.63 43.45 60.52 L 43.45 64.14 C 44.34 64.03 45.46 63.98 46.78 63.98 L 61.29 63.98 C 62.57 63.98 63.71 64.03 64.57 64.14 L 64.57 60.52 C 63.73 60.63 62.57 60.68 61.29 60.68 L 58.24 60.68 C 59.33 58.06 59.99 56.23 60.7 53.91 C 61.34 51.81 61.34 51.81 61.56 51.13 L 57.58 50.06 C 57.51 50.93 57.37 51.52 56.89 53.41 C 56.19 56.14 55.32 58.74 54.5 60.68 L 46.78 60.68 Z M 46.48 51.36 C 47.55 54.02 48.28 56.53 49.03 60.15 L 52.66 58.9 C 51.65 54.98 50.92 52.66 49.94 50.11 L 46.48 51.36 Z"
        fill="#000000"/>
</svg>
